<?xml version="1.0" encoding="UTF-8" standalone="no"?>
<!DOCTYPE svg PUBLIC "-//W3C//DTD SVG 1.1//EN"
 "http://www.w3.org/Graphics/SVG/1.1/DTD/svg11.dtd">
<!-- Generated by graphviz version 14.0.2 (20251019.1705)
 -->
<!-- Title: dependency_graph Pages: 1 -->
<svg width="168pt" height="476pt"
 viewBox="0.00 0.00 168.00 476.00" xmlns="http://www.w3.org/2000/svg" xmlns:xlink="http://www.w3.org/1999/xlink">
<g id="graph0" class="graph" transform="scale(1 1) rotate(0) translate(4 472)">
<title>dependency_graph</title>
<polygon fill="white" stroke="none" points="-4,4 -4,-472 164.38,-472 164.38,4 -4,4"/>
<!-- serde -->
<g id="node1" class="node">
<title>serde</title>
<path fill="none" stroke="blue" stroke-width="2" d="M84.25,-468C84.25,-468 54.25,-468 54.25,-468 48.25,-468 42.25,-462 42.25,-456 42.25,-456 42.25,-444 42.25,-444 42.25,-438 48.25,-432 54.25,-432 54.25,-432 84.25,-432 84.25,-432 90.25,-432 96.25,-438 96.25,-444 96.25,-444 96.25,-456 96.25,-456 96.25,-462 90.25,-468 84.25,-468"/>
<text xml:space="preserve" text-anchor="middle" x="69.25" y="-444.95" font-family="Times New Roman,serif" font-size="14.00" fill="blue">serde</text>
</g>
<!-- serde_core -->
<g id="node2" class="node">
<title>serde_core</title>
<path fill="none" stroke="black" d="M62.5,-396C62.5,-396 12,-396 12,-396 6,-396 0,-390 0,-384 0,-384 0,-372 0,-372 0,-366 6,-360 12,-360 12,-360 62.5,-360 62.5,-360 68.5,-360 74.5,-366 74.5,-372 74.5,-372 74.5,-384 74.5,-384 74.5,-390 68.5,-396 62.5,-396"/>
<text xml:space="preserve" text-anchor="middle" x="37.25" y="-372.95" font-family="Times New Roman,serif" font-size="14.00">serde_core</text>
</g>
<!-- serde&#45;&gt;serde_core -->
<g id="edge1" class="edge">
<title>serde&#45;&gt;serde_core</title>
<path fill="none" stroke="black" d="M61.18,-431.34C57.78,-423.9 53.74,-415.07 49.96,-406.8"/>
<polygon fill="black" stroke="black" points="53.18,-405.43 45.84,-397.79 46.82,-408.34 53.18,-405.43"/>
</g>
<!-- serde_derive -->
<g id="node3" class="node">
<title>serde_derive</title>
<path fill="none" stroke="black" d="M99.75,-324C99.75,-324 38.75,-324 38.75,-324 32.75,-324 26.75,-318 26.75,-312 26.75,-312 26.75,-300 26.75,-300 26.75,-294 32.75,-288 38.75,-288 38.75,-288 99.75,-288 99.75,-288 105.75,-288 111.75,-294 111.75,-300 111.75,-300 111.75,-312 111.75,-312 111.75,-318 105.75,-324 99.75,-324"/>
<text xml:space="preserve" text-anchor="middle" x="69.25" y="-300.95" font-family="Times New Roman,serif" font-size="14.00">serde_derive</text>
</g>
<!-- serde&#45;&gt;serde_derive -->
<g id="edge2" class="edge">
<title>serde&#45;&gt;serde_derive</title>
<path fill="none" stroke="black" d="M75.22,-431.08C78.29,-420.92 81.71,-407.89 83.25,-396 85.31,-380.13 85.31,-375.87 83.25,-360 82.2,-351.88 80.27,-343.24 78.18,-335.34"/>
<polygon fill="black" stroke="black" points="81.59,-334.55 75.49,-325.9 74.86,-336.47 81.59,-334.55"/>
</g>
<!-- serde_core&#45;&gt;serde_derive -->
<g id="edge3" class="edge">
<title>serde_core&#45;&gt;serde_derive</title>
<path fill="none" stroke="black" d="M45.16,-359.7C48.65,-352.07 52.83,-342.92 56.73,-334.4"/>
<polygon fill="black" stroke="black" points="59.83,-336.03 60.8,-325.48 53.46,-333.12 59.83,-336.03"/>
</g>
<!-- proc&#45;macro2 -->
<g id="node4" class="node">
<title>proc&#45;macro2</title>
<path fill="none" stroke="black" d="M111.12,-108C111.12,-108 49.38,-108 49.38,-108 43.38,-108 37.38,-102 37.38,-96 37.38,-96 37.38,-84 37.38,-84 37.38,-78 43.38,-72 49.38,-72 49.38,-72 111.12,-72 111.12,-72 117.12,-72 123.12,-78 123.12,-84 123.12,-84 123.12,-96 123.12,-96 123.12,-102 117.12,-108 111.12,-108"/>
<text xml:space="preserve" text-anchor="middle" x="80.25" y="-84.95" font-family="Times New Roman,serif" font-size="14.00">proc&#45;macro2</text>
</g>
<!-- serde_derive&#45;&gt;proc&#45;macro2 -->
<g id="edge4" class="edge">
<title>serde_derive&#45;&gt;proc&#45;macro2</title>
<path fill="none" stroke="black" d="M58.94,-287.61C42.51,-257.57 14.14,-194.34 33.25,-144 37.1,-133.87 43.86,-124.43 51.09,-116.41"/>
<polygon fill="black" stroke="black" points="53.46,-118.99 57.93,-109.38 48.44,-114.11 53.46,-118.99"/>
</g>
<!-- quote -->
<g id="node5" class="node">
<title>quote</title>
<path fill="none" stroke="black" d="M84.25,-180C84.25,-180 54.25,-180 54.25,-180 48.25,-180 42.25,-174 42.25,-168 42.25,-168 42.25,-156 42.25,-156 42.25,-150 48.25,-144 54.25,-144 54.25,-144 84.25,-144 84.25,-144 90.25,-144 96.25,-150 96.25,-156 96.25,-156 96.25,-168 96.25,-168 96.25,-174 90.25,-180 84.25,-180"/>
<text xml:space="preserve" text-anchor="middle" x="69.25" y="-156.95" font-family="Times New Roman,serif" font-size="14.00">quote</text>
</g>
<!-- serde_derive&#45;&gt;quote -->
<g id="edge5" class="edge">
<title>serde_derive&#45;&gt;quote</title>
<path fill="none" stroke="black" d="M69.25,-287.59C69.25,-263.61 69.25,-220.14 69.25,-191.42"/>
<polygon fill="black" stroke="black" points="72.75,-191.62 69.25,-181.62 65.75,-191.62 72.75,-191.62"/>
</g>
<!-- syn -->
<g id="node6" class="node">
<title>syn</title>
<path fill="none" stroke="black" d="M139.25,-252C139.25,-252 109.25,-252 109.25,-252 103.25,-252 97.25,-246 97.25,-240 97.25,-240 97.25,-228 97.25,-228 97.25,-222 103.25,-216 109.25,-216 109.25,-216 139.25,-216 139.25,-216 145.25,-216 151.25,-222 151.25,-228 151.25,-228 151.25,-240 151.25,-240 151.25,-246 145.25,-252 139.25,-252"/>
<text xml:space="preserve" text-anchor="middle" x="124.25" y="-228.95" font-family="Times New Roman,serif" font-size="14.00">syn</text>
</g>
<!-- serde_derive&#45;&gt;syn -->
<g id="edge6" class="edge">
<title>serde_derive&#45;&gt;syn</title>
<path fill="none" stroke="black" d="M82.85,-287.7C89.17,-279.64 96.83,-269.89 103.84,-260.98"/>
<polygon fill="black" stroke="black" points="106.45,-263.32 109.88,-253.29 100.95,-259 106.45,-263.32"/>
</g>
<!-- unicode&#45;ident -->
<g id="node7" class="node">
<title>unicode&#45;ident</title>
<path fill="none" stroke="black" d="M148.38,-36C148.38,-36 82.12,-36 82.12,-36 76.12,-36 70.12,-30 70.12,-24 70.12,-24 70.12,-12 70.12,-12 70.12,-6 76.12,0 82.12,0 82.12,0 148.38,0 148.38,0 154.38,0 160.38,-6 160.38,-12 160.38,-12 160.38,-24 160.38,-24 160.38,-30 154.38,-36 148.38,-36"/>
<text xml:space="preserve" text-anchor="middle" x="115.25" y="-12.95" font-family="Times New Roman,serif" font-size="14.00">unicode&#45;ident</text>
</g>
<!-- proc&#45;macro2&#45;&gt;unicode&#45;ident -->
<g id="edge7" class="edge">
<title>proc&#45;macro2&#45;&gt;unicode&#45;ident</title>
<path fill="none" stroke="black" d="M88.9,-71.7C92.72,-64.07 97.29,-54.92 101.55,-46.4"/>
<polygon fill="black" stroke="black" points="104.68,-47.97 106.02,-37.46 98.42,-44.84 104.68,-47.97"/>
</g>
<!-- quote&#45;&gt;proc&#45;macro2 -->
<g id="edge8" class="edge">
<title>quote&#45;&gt;proc&#45;macro2</title>
<path fill="none" stroke="black" d="M71.97,-143.7C73.13,-136.32 74.51,-127.52 75.81,-119.25"/>
<polygon fill="black" stroke="black" points="79.23,-120.02 77.33,-109.6 72.32,-118.93 79.23,-120.02"/>
</g>
<!-- syn&#45;&gt;proc&#45;macro2 -->
<g id="edge9" class="edge">
<title>syn&#45;&gt;proc&#45;macro2</title>
<path fill="none" stroke="black" d="M121.76,-215.62C118.87,-197.45 113.44,-168.25 105.25,-144 102.39,-135.52 98.54,-126.6 94.72,-118.56"/>
<polygon fill="black" stroke="black" points="97.86,-117.02 90.3,-109.6 91.59,-120.12 97.86,-117.02"/>
</g>
<!-- syn&#45;&gt;quote -->
<g id="edge11" class="edge">
<title>syn&#45;&gt;quote</title>
<path fill="none" stroke="black" d="M110.65,-215.7C104.33,-207.64 96.67,-197.89 89.66,-188.98"/>
<polygon fill="black" stroke="black" points="92.55,-187 83.62,-181.29 87.05,-191.32 92.55,-187"/>
</g>
<!-- syn&#45;&gt;unicode&#45;ident -->
<g id="edge10" class="edge">
<title>syn&#45;&gt;unicode&#45;ident</title>
<path fill="none" stroke="black" d="M127.36,-215.96C132.26,-186.44 140.38,-123.98 132.25,-72 130.97,-63.79 128.63,-55.11 126.08,-47.21"/>
<polygon fill="black" stroke="black" points="129.39,-46.07 122.81,-37.77 122.78,-48.36 129.39,-46.07"/>
</g>
</g>
</svg>
