<?xml version="1.0" encoding="UTF-8" standalone="no"?>
<!DOCTYPE svg PUBLIC "-//W3C//DTD SVG 1.1//EN"
 "http://www.w3.org/Graphics/SVG/1.1/DTD/svg11.dtd">
<!-- Generated by graphviz version 14.0.2 (20251019.1705)
 -->
<!-- Title: dependency_graph Pages: 1 -->
<svg width="142pt" height="404pt"
 viewBox="0.00 0.00 142.00 404.00" xmlns="http://www.w3.org/2000/svg" xmlns:xlink="http://www.w3.org/1999/xlink">
<g id="graph0" class="graph" transform="scale(1 1) rotate(0) translate(4 400)">
<title>dependency_graph</title>
<polygon fill="white" stroke="none" points="-4,4 -4,-400 137.6,-400 137.6,4 -4,4"/>
<!-- itoa -->
<g id="node1" class="node">
<title>itoa</title>
<path fill="none" stroke="blue" stroke-width="2" d="M57.47,-396C57.47,-396 27.47,-396 27.47,-396 21.47,-396 15.47,-390 15.47,-384 15.47,-384 15.47,-372 15.47,-372 15.47,-366 21.47,-360 27.47,-360 27.47,-360 57.47,-360 57.47,-360 63.47,-360 69.47,-366 69.47,-372 69.47,-372 69.47,-384 69.47,-384 69.47,-390 63.47,-396 57.47,-396"/>
<text xml:space="preserve" text-anchor="middle" x="42.47" y="-372.95" font-family="Times New Roman,serif" font-size="14.00" fill="blue">itoa</text>
</g>
<!-- no&#45;panic -->
<g id="node2" class="node">
<title>no&#45;panic</title>
<path fill="none" stroke="black" d="M62.1,-324C62.1,-324 22.85,-324 22.85,-324 16.85,-324 10.85,-318 10.85,-312 10.85,-312 10.85,-300 10.85,-300 10.85,-294 16.85,-288 22.85,-288 22.85,-288 62.1,-288 62.1,-288 68.1,-288 74.1,-294 74.1,-300 74.1,-300 74.1,-312 74.1,-312 74.1,-318 68.1,-324 62.1,-324"/>
<text xml:space="preserve" text-anchor="middle" x="42.47" y="-300.95" font-family="Times New Roman,serif" font-size="14.00">no&#45;panic</text>
</g>
<!-- itoa&#45;&gt;no&#45;panic -->
<g id="edge1" class="edge">
<title>itoa&#45;&gt;no&#45;panic</title>
<path fill="none" stroke="black" d="M42.47,-359.34C42.47,-352.24 42.47,-343.86 42.47,-335.92"/>
<polygon fill="black" stroke="black" points="45.97,-335.93 42.47,-325.93 38.97,-335.93 45.97,-335.93"/>
</g>
<!-- proc&#45;macro2 -->
<g id="node3" class="node">
<title>proc&#45;macro2</title>
<path fill="none" stroke="black" d="M84.35,-108C84.35,-108 22.6,-108 22.6,-108 16.6,-108 10.6,-102 10.6,-96 10.6,-96 10.6,-84 10.6,-84 10.6,-78 16.6,-72 22.6,-72 22.6,-72 84.35,-72 84.35,-72 90.35,-72 96.35,-78 96.35,-84 96.35,-84 96.35,-96 96.35,-96 96.35,-102 90.35,-108 84.35,-108"/>
<text xml:space="preserve" text-anchor="middle" x="53.47" y="-84.95" font-family="Times New Roman,serif" font-size="14.00">proc&#45;macro2</text>
</g>
<!-- no&#45;panic&#45;&gt;proc&#45;macro2 -->
<g id="edge2" class="edge">
<title>no&#45;panic&#45;&gt;proc&#45;macro2</title>
<path fill="none" stroke="black" d="M32.16,-287.61C15.74,-257.57 -12.64,-194.34 6.47,-144 10.32,-133.87 17.08,-124.43 24.31,-116.41"/>
<polygon fill="black" stroke="black" points="26.68,-118.99 31.15,-109.38 21.66,-114.11 26.68,-118.99"/>
</g>
<!-- quote -->
<g id="node4" class="node">
<title>quote</title>
<path fill="none" stroke="black" d="M57.47,-180C57.47,-180 27.47,-180 27.47,-180 21.47,-180 15.47,-174 15.47,-168 15.47,-168 15.47,-156 15.47,-156 15.47,-150 21.47,-144 27.47,-144 27.47,-144 57.47,-144 57.47,-144 63.47,-144 69.47,-150 69.47,-156 69.47,-156 69.47,-168 69.47,-168 69.47,-174 63.47,-180 57.47,-180"/>
<text xml:space="preserve" text-anchor="middle" x="42.47" y="-156.95" font-family="Times New Roman,serif" font-size="14.00">quote</text>
</g>
<!-- no&#45;panic&#45;&gt;quote -->
<g id="edge3" class="edge">
<title>no&#45;panic&#45;&gt;quote</title>
<path fill="none" stroke="black" d="M42.47,-287.59C42.47,-263.61 42.47,-220.14 42.47,-191.42"/>
<polygon fill="black" stroke="black" points="45.97,-191.62 42.47,-181.62 38.97,-191.62 45.97,-191.62"/>
</g>
<!-- syn -->
<g id="node5" class="node">
<title>syn</title>
<path fill="none" stroke="black" d="M112.47,-252C112.47,-252 82.47,-252 82.47,-252 76.47,-252 70.47,-246 70.47,-240 70.47,-240 70.47,-228 70.47,-228 70.47,-222 76.47,-216 82.47,-216 82.47,-216 112.47,-216 112.47,-216 118.47,-216 124.47,-222 124.47,-228 124.47,-228 124.47,-240 124.47,-240 124.47,-246 118.47,-252 112.47,-252"/>
<text xml:space="preserve" text-anchor="middle" x="97.47" y="-228.95" font-family="Times New Roman,serif" font-size="14.00">syn</text>
</g>
<!-- no&#45;panic&#45;&gt;syn -->
<g id="edge4" class="edge">
<title>no&#45;panic&#45;&gt;syn</title>
<path fill="none" stroke="black" d="M56.07,-287.7C62.39,-279.64 70.05,-269.89 77.06,-260.98"/>
<polygon fill="black" stroke="black" points="79.67,-263.32 83.1,-253.29 74.17,-259 79.67,-263.32"/>
</g>
<!-- unicode&#45;ident -->
<g id="node6" class="node">
<title>unicode&#45;ident</title>
<path fill="none" stroke="black" d="M121.6,-36C121.6,-36 55.35,-36 55.35,-36 49.35,-36 43.35,-30 43.35,-24 43.35,-24 43.35,-12 43.35,-12 43.35,-6 49.35,0 55.35,0 55.35,0 121.6,0 121.6,0 127.6,0 133.6,-6 133.6,-12 133.6,-12 133.6,-24 133.6,-24 133.6,-30 127.6,-36 121.6,-36"/>
<text xml:space="preserve" text-anchor="middle" x="88.47" y="-12.95" font-family="Times New Roman,serif" font-size="14.00">unicode&#45;ident</text>
</g>
<!-- proc&#45;macro2&#45;&gt;unicode&#45;ident -->
<g id="edge5" class="edge">
<title>proc&#45;macro2&#45;&gt;unicode&#45;ident</title>
<path fill="none" stroke="black" d="M62.12,-71.7C65.94,-64.07 70.51,-54.92 74.77,-46.4"/>
<polygon fill="black" stroke="black" points="77.9,-47.97 79.24,-37.46 71.64,-44.84 77.9,-47.97"/>
</g>
<!-- quote&#45;&gt;proc&#45;macro2 -->
<g id="edge6" class="edge">
<title>quote&#45;&gt;proc&#45;macro2</title>
<path fill="none" stroke="black" d="M45.19,-143.7C46.35,-136.32 47.73,-127.52 49.03,-119.25"/>
<polygon fill="black" stroke="black" points="52.45,-120.02 50.55,-109.6 45.54,-118.93 52.45,-120.02"/>
</g>
<!-- syn&#45;&gt;proc&#45;macro2 -->
<g id="edge7" class="edge">
<title>syn&#45;&gt;proc&#45;macro2</title>
<path fill="none" stroke="black" d="M94.98,-215.62C92.09,-197.45 86.66,-168.25 78.47,-144 75.61,-135.52 71.76,-126.6 67.94,-118.56"/>
<polygon fill="black" stroke="black" points="71.08,-117.02 63.52,-109.6 64.81,-120.12 71.08,-117.02"/>
</g>
<!-- syn&#45;&gt;quote -->
<g id="edge9" class="edge">
<title>syn&#45;&gt;quote</title>
<path fill="none" stroke="black" d="M83.88,-215.7C77.55,-207.64 69.89,-197.89 62.89,-188.98"/>
<polygon fill="black" stroke="black" points="65.78,-187 56.85,-181.29 60.27,-191.32 65.78,-187"/>
</g>
<!-- syn&#45;&gt;unicode&#45;ident -->
<g id="edge8" class="edge">
<title>syn&#45;&gt;unicode&#45;ident</title>
<path fill="none" stroke="black" d="M100.59,-215.96C105.48,-186.44 113.6,-123.98 105.47,-72 104.19,-63.79 101.85,-55.11 99.31,-47.21"/>
<polygon fill="black" stroke="black" points="102.61,-46.07 96.03,-37.77 96,-48.36 102.61,-46.07"/>
</g>
</g>
</svg>
